<svg width="40" height="40" viewBox="0 0 40 40" fill="none" xmlns="http://www.w3.org/2000/svg">
<path d="M0.5 0.5H38C38.8284 0.5 39.5 1.17157 39.5 2V38C39.5 38.8284 38.8284 39.5 38 39.5H0.5V0.5Z" fill="#22A6BA" stroke="#1897AB"/>
<g clip-path="url(#clip0_80_140573)">
<path d="M17.85 23.1167L17.5 27.6833C17.6776 27.685 17.8533 27.6461 18.0136 27.5695C18.1739 27.493 18.3146 27.3809 18.425 27.2417L20.6417 25.1583L25.2417 28.4917C26.075 28.95 26.6833 28.7083 26.9083 27.7333L29.9417 13.8167C30.2083 12.5917 29.4917 12.15 28.675 12.4167L10.925 19.0833C9.71668 19.55 9.73335 20.2083 10.725 20.5083L15.2583 21.8917L25.8333 15.425C26.3333 15.1 26.7833 15.275 26.4167 15.6L17.85 23.1167Z" fill="white"/>
</g>
<defs>
<clipPath id="clip0_80_140573">
<rect width="20" height="20" fill="white" transform="translate(10 10)"/>
</clipPath>
</defs>
</svg>
